<svg id="Layer_1" data-name="Layer 1" xmlns="http://www.w3.org/2000/svg" viewBox="0 0 50 30"><defs><style>.cls-1{fill:none;}.cls-2{fill:#cccccb;}</style></defs><title>option</title><path class="cls-1" d="M-22.41,9h-.2a2.84,2.84,0,0,0-2.68,3,2.84,2.84,0,0,0,0,.34,2.86,2.86,0,0,0,3,2.69,2.86,2.86,0,0,0,2.69-3q0-.12,0-.24A2.8,2.8,0,0,0-22.41,9Z" transform="translate(39.5 3.01)"/><path class="cls-1" d="M-12.48,9h-.2a2.84,2.84,0,0,0-2.68,3,2.87,2.87,0,0,0,0,.34,2.86,2.86,0,0,0,3,2.69,2.86,2.86,0,0,0,2.69-3q0-.12,0-.24A2.8,2.8,0,0,0-12.48,9Z" transform="translate(39.5 3.01)"/><path class="cls-1" d="M-2.54,9h-.2a2.84,2.84,0,0,0-2.68,3,2.87,2.87,0,0,0,0,.34A2.86,2.86,0,0,0-2.4,15,2.86,2.86,0,0,0,.29,12q0-.12,0-.24A2.8,2.8,0,0,0-2.54,9Z" transform="translate(39.5 3.01)"/><path class="cls-2" d="M-4.5-3h-20a15,15,0,0,0-15,15,15,15,0,0,0,15,15h20a15,15,0,0,0,15-15A15,15,0,0,0-4.5-3ZM-19.58,12a2.86,2.86,0,0,1-2.69,3,2.86,2.86,0,0,1-3-2.69,2.84,2.84,0,0,1,0-.34,2.84,2.84,0,0,1,2.68-3h.2a2.8,2.8,0,0,1,2.84,2.76Q-19.57,11.85-19.58,12Zm9.93,0a2.86,2.86,0,0,1-2.69,3,2.86,2.86,0,0,1-3-2.69,2.87,2.87,0,0,1,0-.34,2.84,2.84,0,0,1,2.68-3h.2a2.8,2.8,0,0,1,2.84,2.76Q-9.64,11.85-9.65,12ZM.29,12A2.86,2.86,0,0,1-2.4,15a2.86,2.86,0,0,1-3-2.69,2.87,2.87,0,0,1,0-.34A2.84,2.84,0,0,1-2.74,9h.2A2.8,2.8,0,0,1,.3,11.73Q.3,11.85.29,12Z" transform="translate(39.5 3.01)"/></svg>